<svg width="752" height="752" viewBox="0 0 752 752" fill="none" xmlns="http://www.w3.org/2000/svg">
<circle cx="376" cy="376" r="376" fill="#FF9741"/>
<path d="M549.993 389.966C513.482 295.253 383.485 290.146 414.879 152.487C417.205 142.272 406.275 134.38 397.438 139.719C313.021 189.397 252.324 288.985 303.254 419.447C307.44 430.126 294.882 440.108 285.812 433.144C243.72 401.341 239.301 355.609 243.022 322.877C244.418 310.806 228.604 305.003 221.86 314.985C206.046 339.127 190 378.127 190 436.858C198.837 566.856 308.835 606.784 348.369 611.891C404.88 619.088 466.041 608.642 509.994 568.481C558.365 523.678 576.039 452.179 549.993 389.966ZM334.183 506.732C367.671 498.607 384.88 474.465 389.531 453.108C397.205 419.912 367.206 387.412 387.438 334.949C395.112 378.359 463.483 405.519 463.483 452.876C465.344 511.607 401.624 561.981 334.183 506.732Z" fill="white"/>
</svg>
