<svg width="188" height="188" viewBox="0 0 188 188" fill="none" xmlns="http://www.w3.org/2000/svg">
<circle cx="94" cy="94" r="94" transform="matrix(-1 0 0 1 188 0)" fill="#87FF85"/>
<g clip-path="url(#clip0_36_21)">
<path d="M94 126H54V118H77C74.08 106.76 65.24 97.96 54 95.04C56.56 94.4 59.24 94 62 94C79.68 94 94 108.32 94 126ZM134 95.04C131.44 94.4 128.76 94 126 94C114.28 94 104.08 100.32 98.48 109.72C99.64 112.36 100.6 115.12 101.16 118C101.68 120.6 101.96 123.28 101.96 126H109.96H133.96V118H110.96C113.92 106.76 122.76 97.96 134 95.04ZM108.56 90.08C111.68 81.72 117.48 74.72 124.92 70.08C107.76 70.64 94 84.68 94 102C94 102.04 94 102.08 94 102.08C97.8 97 102.8 92.88 108.56 90.08ZM91.68 81.4C88.32 72.64 81.52 65.56 72.8 62C78.56 69.44 82 78.72 82 88.84C82 89.68 81.88 90.48 81.84 91.28C83.56 92.24 85.16 93.36 86.72 94.56C87.56 89.84 89.32 85.4 91.68 81.4Z" fill="black"/>
</g>
<defs>
<clipPath id="clip0_36_21">
<rect width="96" height="96" fill="white" transform="translate(46 46)"/>
</clipPath>
</defs>
</svg>
